<?xml version="1.0" encoding="UTF-8"?>
<svg xmlns="http://www.w3.org/2000/svg" xmlns:xlink="http://www.w3.org/1999/xlink" width="32px" height="32px" viewBox="0 0 32 32" version="1.1">
<g id="surface1">
<path style=" stroke:none;fill-rule:nonzero;fill:rgb(99.607843%,96.862745%,89.411765%);fill-opacity:1;" d="M 14.207031 4.289062 C 14.207031 4.332031 14.207031 4.371094 14.207031 4.414062 C 14.25 4.414062 14.292969 4.414062 14.335938 4.414062 C 14.398438 4.574219 14.398438 4.574219 14.464844 4.734375 C 14.507812 4.734375 14.546875 4.734375 14.59375 4.734375 C 14.667969 4.828125 14.667969 4.828125 14.75 4.957031 C 14.78125 5.003906 14.8125 5.050781 14.84375 5.101562 C 14.894531 5.175781 14.894531 5.175781 14.945312 5.257812 C 15.015625 5.363281 15.085938 5.46875 15.152344 5.578125 C 15.207031 5.65625 15.207031 5.65625 15.261719 5.738281 C 15.394531 5.941406 15.535156 6.140625 15.675781 6.335938 C 15.699219 6.371094 15.726562 6.40625 15.75 6.441406 C 15.90625 6.65625 16.0625 6.871094 16.21875 7.085938 C 16.257812 7.136719 16.296875 7.1875 16.335938 7.242188 C 16.410156 7.34375 16.484375 7.441406 16.558594 7.542969 C 16.726562 7.773438 16.871094 7.980469 16.960938 8.257812 C 17.003906 8.257812 17.042969 8.257812 17.089844 8.257812 C 17.191406 8.378906 17.191406 8.378906 17.3125 8.550781 C 17.355469 8.617188 17.402344 8.679688 17.449219 8.746094 C 17.472656 8.777344 17.496094 8.8125 17.523438 8.847656 C 17.605469 8.96875 17.691406 9.085938 17.777344 9.203125 C 17.835938 9.28125 17.894531 9.363281 17.953125 9.445312 C 17.980469 9.484375 18.007812 9.523438 18.039062 9.5625 C 18.238281 9.839844 18.238281 9.839844 18.238281 9.984375 C 18.558594 9.984375 18.875 9.984375 19.199219 9.984375 C 19.199219 9.898438 19.199219 9.808594 19.195312 9.71875 C 19.191406 9.394531 19.1875 9.070312 19.1875 8.746094 C 19.183594 8.605469 19.183594 8.46875 19.179688 8.328125 C 19.175781 8.125 19.175781 7.921875 19.175781 7.722656 C 19.171875 7.660156 19.171875 7.597656 19.171875 7.53125 C 19.171875 7.15625 19.199219 6.9375 19.457031 6.65625 C 19.679688 6.582031 19.886719 6.582031 20.121094 6.582031 C 20.164062 6.582031 20.210938 6.582031 20.257812 6.582031 C 20.355469 6.582031 20.453125 6.582031 20.550781 6.582031 C 20.699219 6.585938 20.847656 6.582031 20.996094 6.582031 C 21.089844 6.582031 21.183594 6.582031 21.28125 6.582031 C 21.324219 6.582031 21.367188 6.582031 21.414062 6.582031 C 21.625 6.585938 21.816406 6.589844 22.015625 6.65625 C 22.015625 6.699219 22.015625 6.742188 22.015625 6.785156 C 22.058594 6.785156 22.101562 6.785156 22.144531 6.785156 C 22.222656 6.9375 22.214844 7.035156 22.214844 7.207031 C 22.214844 7.269531 22.214844 7.332031 22.214844 7.394531 C 22.214844 7.460938 22.214844 7.527344 22.214844 7.597656 C 22.214844 7.699219 22.214844 7.699219 22.214844 7.800781 C 22.214844 8.019531 22.210938 8.238281 22.210938 8.457031 C 22.210938 8.601562 22.210938 8.75 22.210938 8.898438 C 22.210938 9.261719 22.210938 9.621094 22.207031 9.984375 C 22.546875 9.984375 22.882812 9.984375 23.230469 9.984375 C 23.230469 9.820312 23.230469 9.652344 23.226562 9.484375 C 23.222656 8.9375 23.21875 8.394531 23.214844 7.847656 C 23.214844 7.515625 23.210938 7.1875 23.207031 6.855469 C 23.203125 6.535156 23.203125 6.21875 23.203125 5.898438 C 23.199219 5.777344 23.199219 5.65625 23.199219 5.53125 C 23.195312 5.363281 23.195312 5.191406 23.195312 5.023438 C 23.195312 4.972656 23.195312 4.921875 23.191406 4.867188 C 23.195312 4.613281 23.222656 4.492188 23.378906 4.289062 C 23.613281 4.117188 23.8125 4.113281 24.09375 4.121094 C 24.144531 4.121094 24.195312 4.121094 24.25 4.121094 C 24.355469 4.121094 24.464844 4.121094 24.574219 4.121094 C 24.738281 4.125 24.90625 4.125 25.070312 4.121094 C 25.175781 4.121094 25.28125 4.121094 25.386719 4.125 C 25.460938 4.125 25.460938 4.125 25.539062 4.121094 C 25.765625 4.128906 25.894531 4.140625 26.078125 4.28125 C 26.214844 4.472656 26.25 4.574219 26.25 4.804688 C 26.25 4.886719 26.25 4.886719 26.253906 4.972656 C 26.253906 5.03125 26.253906 5.09375 26.253906 5.15625 C 26.253906 5.21875 26.253906 5.285156 26.253906 5.347656 C 26.257812 5.5625 26.257812 5.777344 26.261719 5.988281 C 26.261719 6.140625 26.261719 6.289062 26.265625 6.4375 C 26.265625 6.757812 26.269531 7.074219 26.273438 7.394531 C 26.273438 7.789062 26.277344 8.1875 26.28125 8.585938 C 26.300781 10.609375 26.308594 12.632812 26.304688 14.65625 C 26.375 14.652344 26.441406 14.652344 26.515625 14.648438 C 26.851562 14.660156 27.03125 14.808594 27.265625 15.039062 C 27.285156 15.222656 27.296875 15.394531 27.304688 15.578125 C 27.308594 15.664062 27.308594 15.664062 27.308594 15.75 C 27.335938 16.449219 27.339844 17.148438 27.339844 17.847656 C 27.339844 18.078125 27.339844 18.308594 27.34375 18.539062 C 27.34375 18.6875 27.34375 18.835938 27.34375 18.984375 C 27.34375 19.050781 27.34375 19.121094 27.34375 19.191406 C 27.34375 19.253906 27.34375 19.320312 27.34375 19.382812 C 27.34375 19.441406 27.34375 19.496094 27.34375 19.554688 C 27.320312 19.78125 27.253906 19.964844 27.113281 20.144531 C 26.867188 20.332031 26.597656 20.289062 26.304688 20.289062 C 26.304688 20.402344 26.304688 20.402344 26.304688 20.519531 C 26.304688 20.808594 26.308594 21.097656 26.308594 21.386719 C 26.308594 21.511719 26.308594 21.636719 26.308594 21.761719 C 26.3125 22.925781 26.3125 22.925781 26.273438 23.410156 C 26.238281 23.824219 26.234375 24.238281 26.230469 24.652344 C 26.226562 24.722656 26.226562 24.792969 26.226562 24.867188 C 26.222656 25.160156 26.21875 25.453125 26.21875 25.746094 C 26.21875 25.964844 26.214844 26.179688 26.210938 26.398438 C 26.210938 26.460938 26.214844 26.527344 26.214844 26.597656 C 26.207031 27.023438 26.125 27.339844 25.921875 27.710938 C 25.878906 27.710938 25.835938 27.710938 25.792969 27.710938 C 25.78125 27.75 25.769531 27.785156 25.757812 27.824219 C 25.621094 28.035156 25.445312 28.136719 25.214844 28.222656 C 24.980469 28.261719 24.746094 28.257812 24.507812 28.257812 C 24.402344 28.257812 24.402344 28.257812 24.296875 28.257812 C 24.066406 28.257812 23.835938 28.257812 23.605469 28.257812 C 23.445312 28.257812 23.285156 28.257812 23.125 28.257812 C 22.789062 28.257812 22.453125 28.257812 22.117188 28.257812 C 21.730469 28.257812 21.34375 28.257812 20.953125 28.257812 C 20.582031 28.257812 20.207031 28.257812 19.832031 28.257812 C 19.675781 28.257812 19.515625 28.257812 19.355469 28.257812 C 19.136719 28.257812 18.914062 28.257812 18.691406 28.257812 C 18.625 28.257812 18.5625 28.257812 18.492188 28.257812 C 18.097656 28.253906 17.863281 28.195312 17.535156 27.96875 C 17.535156 27.925781 17.535156 27.882812 17.535156 27.839844 C 17.492188 27.839844 17.453125 27.839844 17.40625 27.839844 C 17.074219 27.328125 17.015625 26.855469 17.019531 26.25 C 17.019531 26.207031 17.019531 26.160156 17.023438 26.117188 C 17.023438 26.007812 17.023438 25.898438 17.023438 25.792969 C 16.9375 25.792969 16.9375 25.792969 16.847656 25.792969 C 15.449219 25.796875 14.046875 25.796875 12.644531 25.796875 C 11.964844 25.800781 11.289062 25.800781 10.609375 25.800781 C 10.019531 25.804688 9.429688 25.804688 8.839844 25.804688 C 8.527344 25.804688 8.214844 25.804688 7.898438 25.804688 C 7.605469 25.804688 7.3125 25.808594 7.015625 25.804688 C 6.910156 25.804688 6.800781 25.808594 6.691406 25.808594 C 6.542969 25.808594 6.398438 25.808594 6.25 25.808594 C 6.167969 25.808594 6.085938 25.808594 6 25.808594 C 5.464844 25.773438 4.933594 25.617188 4.554688 25.21875 C 3.980469 24.480469 4.085938 23.59375 4.085938 22.699219 C 4.085938 22.578125 4.085938 22.460938 4.085938 22.34375 C 4.085938 22.023438 4.085938 21.703125 4.085938 21.382812 C 4.085938 21.046875 4.085938 20.710938 4.085938 20.378906 C 4.085938 19.8125 4.085938 19.25 4.085938 18.6875 C 4.089844 18.035156 4.089844 17.386719 4.085938 16.738281 C 4.085938 16.175781 4.085938 15.617188 4.085938 15.058594 C 4.085938 14.726562 4.085938 14.390625 4.085938 14.058594 C 4.085938 13.742188 4.085938 13.429688 4.085938 13.117188 C 4.085938 13 4.085938 12.886719 4.085938 12.773438 C 4.085938 12.613281 4.085938 12.457031 4.085938 12.300781 C 4.085938 12.253906 4.085938 12.210938 4.085938 12.164062 C 4.089844 11.253906 4.089844 11.253906 4.324219 10.875 C 4.367188 10.804688 4.367188 10.804688 4.414062 10.730469 C 4.433594 10.695312 4.457031 10.660156 4.480469 10.625 C 4.523438 10.625 4.566406 10.625 4.609375 10.625 C 4.609375 10.582031 4.609375 10.539062 4.609375 10.496094 C 4.648438 10.496094 4.691406 10.496094 4.734375 10.496094 C 4.734375 10.453125 4.734375 10.410156 4.734375 10.367188 C 4.980469 10.242188 5.222656 10.121094 5.480469 10.015625 C 5.699219 9.917969 5.882812 9.796875 6.078125 9.664062 C 6.121094 9.664062 6.164062 9.664062 6.207031 9.664062 C 6.207031 9.621094 6.207031 9.578125 6.207031 9.535156 C 6.492188 9.28125 6.492188 9.28125 6.65625 9.28125 C 6.65625 9.238281 6.65625 9.195312 6.65625 9.152344 C 6.773438 9.050781 6.890625 8.960938 7.015625 8.867188 C 7.09375 8.808594 7.167969 8.753906 7.246094 8.695312 C 7.285156 8.664062 7.324219 8.632812 7.367188 8.605469 C 7.5625 8.457031 7.753906 8.304688 7.945312 8.15625 C 7.980469 8.125 8.019531 8.097656 8.058594 8.066406 C 8.296875 7.878906 8.53125 7.6875 8.765625 7.496094 C 9.476562 6.910156 9.476562 6.910156 9.664062 6.910156 C 9.664062 6.871094 9.664062 6.828125 9.664062 6.785156 C 9.949219 6.527344 9.949219 6.527344 10.113281 6.527344 C 10.113281 6.484375 10.113281 6.445312 10.113281 6.398438 C 10.214844 6.320312 10.214844 6.320312 10.367188 6.21875 C 10.742188 5.96875 11.085938 5.683594 11.433594 5.394531 C 11.476562 5.359375 11.519531 5.324219 11.5625 5.285156 C 11.601562 5.253906 11.636719 5.222656 11.675781 5.1875 C 11.777344 5.121094 11.777344 5.121094 11.902344 5.121094 C 11.902344 5.078125 11.902344 5.035156 11.902344 4.992188 C 12.007812 4.90625 12.117188 4.824219 12.226562 4.746094 C 12.292969 4.703125 12.355469 4.65625 12.421875 4.609375 C 12.484375 4.566406 12.546875 4.523438 12.609375 4.480469 C 12.691406 4.417969 12.773438 4.355469 12.855469 4.292969 C 13.257812 4.027344 13.804688 4.019531 14.207031 4.289062 Z M 14.207031 4.289062 "/>
<path style=" stroke:none;fill-rule:nonzero;fill:rgb(64.705884%,76.862746%,87.450981%);fill-opacity:1;" d="M 18.894531 20.015625 C 18.957031 20.015625 19.023438 20.015625 19.089844 20.015625 C 19.304688 20.015625 19.519531 20.019531 19.734375 20.019531 C 19.886719 20.019531 20.035156 20.019531 20.1875 20.023438 C 20.585938 20.023438 20.984375 20.027344 21.382812 20.03125 C 21.632812 20.03125 21.886719 20.035156 22.136719 20.035156 C 22.550781 20.039062 22.960938 20.042969 23.375 20.050781 C 23.53125 20.050781 23.691406 20.050781 23.847656 20.054688 C 24.070312 20.054688 24.292969 20.058594 24.515625 20.0625 C 24.578125 20.0625 24.644531 20.0625 24.710938 20.066406 C 25.210938 20.074219 25.550781 20.195312 25.921875 20.542969 C 26.121094 20.867188 26.140625 21.128906 26.144531 21.496094 C 26.144531 21.550781 26.148438 21.605469 26.148438 21.664062 C 26.152344 21.847656 26.152344 22.035156 26.15625 22.21875 C 26.15625 22.351562 26.160156 22.480469 26.160156 22.609375 C 26.167969 22.957031 26.171875 23.304688 26.171875 23.652344 C 26.175781 23.875 26.179688 24.097656 26.183594 24.320312 C 26.1875 24.691406 26.191406 25.0625 26.195312 25.4375 C 26.195312 25.578125 26.195312 25.722656 26.199219 25.867188 C 26.203125 26.066406 26.203125 26.269531 26.203125 26.46875 C 26.203125 26.527344 26.207031 26.585938 26.207031 26.648438 C 26.207031 27.054688 26.113281 27.355469 25.921875 27.710938 C 25.878906 27.710938 25.835938 27.710938 25.792969 27.710938 C 25.78125 27.75 25.769531 27.785156 25.757812 27.824219 C 25.621094 28.035156 25.445312 28.136719 25.214844 28.222656 C 24.980469 28.261719 24.746094 28.257812 24.507812 28.257812 C 24.4375 28.257812 24.367188 28.257812 24.296875 28.257812 C 24.066406 28.257812 23.835938 28.257812 23.605469 28.257812 C 23.445312 28.257812 23.285156 28.257812 23.125 28.257812 C 22.789062 28.257812 22.453125 28.257812 22.117188 28.257812 C 21.730469 28.257812 21.34375 28.257812 20.953125 28.257812 C 20.582031 28.257812 20.207031 28.257812 19.832031 28.257812 C 19.675781 28.257812 19.515625 28.257812 19.355469 28.257812 C 19.136719 28.257812 18.914062 28.257812 18.691406 28.257812 C 18.625 28.257812 18.5625 28.257812 18.492188 28.257812 C 18.097656 28.253906 17.863281 28.195312 17.535156 27.96875 C 17.535156 27.925781 17.535156 27.882812 17.535156 27.839844 C 17.492188 27.839844 17.453125 27.839844 17.40625 27.839844 C 17.027344 27.253906 16.964844 26.625 17.054688 25.941406 C 17.089844 25.6875 17.097656 25.4375 17.097656 25.183594 C 17.097656 25.136719 17.097656 25.09375 17.097656 25.046875 C 17.101562 24.949219 17.101562 24.851562 17.101562 24.757812 C 17.101562 24.601562 17.101562 24.449219 17.105469 24.296875 C 17.109375 23.859375 17.113281 23.425781 17.113281 22.988281 C 17.113281 22.722656 17.117188 22.453125 17.121094 22.1875 C 17.121094 22.085938 17.121094 21.984375 17.121094 21.882812 C 17.121094 21.738281 17.125 21.597656 17.125 21.457031 C 17.125 21.375 17.125 21.296875 17.125 21.210938 C 17.167969 20.851562 17.316406 20.601562 17.589844 20.367188 C 17.628906 20.332031 17.671875 20.292969 17.714844 20.257812 C 18.085938 20.003906 18.460938 20.015625 18.894531 20.015625 Z M 18.894531 20.015625 "/>
<path style=" stroke:none;fill-rule:nonzero;fill:rgb(93.333334%,76.47059%,60.392159%);fill-opacity:1;" d="M 14.207031 4.289062 C 14.207031 4.332031 14.207031 4.371094 14.207031 4.414062 C 14.25 4.414062 14.292969 4.414062 14.335938 4.414062 C 14.398438 4.574219 14.398438 4.574219 14.464844 4.734375 C 14.507812 4.734375 14.546875 4.734375 14.59375 4.734375 C 14.667969 4.828125 14.667969 4.828125 14.75 4.957031 C 14.78125 5.003906 14.8125 5.050781 14.84375 5.101562 C 14.894531 5.175781 14.894531 5.175781 14.945312 5.257812 C 15.015625 5.363281 15.085938 5.46875 15.152344 5.578125 C 15.207031 5.65625 15.207031 5.65625 15.261719 5.738281 C 15.394531 5.941406 15.535156 6.140625 15.675781 6.335938 C 15.699219 6.371094 15.726562 6.40625 15.75 6.441406 C 15.90625 6.65625 16.0625 6.871094 16.21875 7.085938 C 16.257812 7.136719 16.296875 7.1875 16.335938 7.242188 C 16.410156 7.34375 16.484375 7.441406 16.558594 7.542969 C 16.726562 7.773438 16.871094 7.980469 16.960938 8.257812 C 17.003906 8.257812 17.042969 8.257812 17.089844 8.257812 C 17.246094 8.445312 17.382812 8.648438 17.523438 8.851562 C 17.601562 8.964844 17.683594 9.074219 17.761719 9.183594 C 17.816406 9.257812 17.867188 9.332031 17.921875 9.402344 C 17.96875 9.472656 18.019531 9.539062 18.066406 9.609375 C 18.175781 9.792969 18.175781 9.792969 18.175781 10.046875 C 14.101562 10.046875 10.023438 10.046875 5.824219 10.046875 C 5.84375 9.964844 5.867188 9.878906 5.886719 9.792969 C 6.050781 9.710938 6.050781 9.710938 6.207031 9.664062 C 6.207031 9.621094 6.207031 9.578125 6.207031 9.535156 C 6.492188 9.28125 6.492188 9.28125 6.65625 9.28125 C 6.65625 9.238281 6.65625 9.195312 6.65625 9.152344 C 6.773438 9.050781 6.890625 8.960938 7.015625 8.867188 C 7.09375 8.808594 7.167969 8.753906 7.246094 8.695312 C 7.285156 8.664062 7.324219 8.632812 7.367188 8.605469 C 7.5625 8.457031 7.753906 8.304688 7.945312 8.15625 C 7.980469 8.125 8.019531 8.097656 8.058594 8.066406 C 8.296875 7.878906 8.53125 7.6875 8.765625 7.496094 C 9.476562 6.910156 9.476562 6.910156 9.664062 6.910156 C 9.664062 6.871094 9.664062 6.828125 9.664062 6.785156 C 9.949219 6.527344 9.949219 6.527344 10.113281 6.527344 C 10.113281 6.484375 10.113281 6.445312 10.113281 6.398438 C 10.214844 6.320312 10.214844 6.320312 10.367188 6.21875 C 10.742188 5.96875 11.085938 5.683594 11.433594 5.394531 C 11.476562 5.359375 11.519531 5.324219 11.5625 5.285156 C 11.601562 5.253906 11.636719 5.222656 11.675781 5.1875 C 11.777344 5.121094 11.777344 5.121094 11.902344 5.121094 C 11.902344 5.078125 11.902344 5.035156 11.902344 4.992188 C 12.007812 4.90625 12.117188 4.824219 12.226562 4.746094 C 12.292969 4.703125 12.355469 4.65625 12.421875 4.609375 C 12.484375 4.566406 12.546875 4.523438 12.609375 4.480469 C 12.691406 4.417969 12.773438 4.355469 12.855469 4.292969 C 13.257812 4.027344 13.804688 4.019531 14.207031 4.289062 Z M 14.207031 4.289062 "/>
<path style=" stroke:none;fill-rule:nonzero;fill:rgb(92.941177%,76.47059%,60.392159%);fill-opacity:1;" d="M 23.378906 14.691406 C 23.480469 14.691406 23.578125 14.6875 23.679688 14.6875 C 23.886719 14.6875 24.097656 14.6875 24.304688 14.6875 C 24.570312 14.6875 24.835938 14.6875 25.105469 14.683594 C 25.308594 14.683594 25.515625 14.683594 25.722656 14.683594 C 25.820312 14.683594 25.917969 14.679688 26.015625 14.679688 C 26.15625 14.679688 26.292969 14.679688 26.429688 14.679688 C 26.507812 14.679688 26.585938 14.679688 26.664062 14.679688 C 26.957031 14.734375 27.058594 14.828125 27.265625 15.039062 C 27.304688 15.238281 27.320312 15.390625 27.320312 15.589844 C 27.320312 15.644531 27.320312 15.699219 27.324219 15.757812 C 27.328125 15.945312 27.328125 16.132812 27.328125 16.320312 C 27.328125 16.460938 27.332031 16.597656 27.332031 16.738281 C 27.339844 17.109375 27.339844 17.476562 27.339844 17.847656 C 27.339844 18.078125 27.339844 18.308594 27.34375 18.539062 C 27.34375 18.6875 27.34375 18.835938 27.34375 18.984375 C 27.34375 19.050781 27.34375 19.121094 27.34375 19.191406 C 27.34375 19.253906 27.34375 19.320312 27.34375 19.382812 C 27.34375 19.441406 27.34375 19.496094 27.34375 19.554688 C 27.320312 19.78125 27.253906 19.964844 27.113281 20.144531 C 26.867188 20.332031 26.597656 20.289062 26.304688 20.289062 C 26.304688 20.363281 26.304688 20.441406 26.304688 20.519531 C 26.304688 20.808594 26.308594 21.097656 26.308594 21.386719 C 26.308594 21.511719 26.308594 21.636719 26.308594 21.761719 C 26.3125 22.46875 26.304688 23.167969 26.238281 23.871094 C 26.199219 23.871094 26.15625 23.871094 26.113281 23.871094 C 26.113281 23.835938 26.109375 23.800781 26.109375 23.761719 C 26.105469 23.382812 26.097656 23.003906 26.089844 22.625 C 26.089844 22.484375 26.085938 22.339844 26.085938 22.199219 C 26.082031 21.996094 26.078125 21.792969 26.074219 21.589844 C 26.074219 21.527344 26.074219 21.464844 26.070312 21.398438 C 26.070312 21.339844 26.070312 21.28125 26.070312 21.21875 C 26.066406 21.167969 26.066406 21.117188 26.066406 21.0625 C 26.054688 20.910156 26.054688 20.910156 25.921875 20.734375 C 25.921875 20.671875 25.921875 20.609375 25.921875 20.542969 C 25.882812 20.527344 25.847656 20.507812 25.8125 20.492188 C 25.652344 20.410156 25.5 20.316406 25.34375 20.222656 C 25.179688 20.140625 25.058594 20.148438 24.871094 20.148438 C 24.765625 20.144531 24.765625 20.144531 24.65625 20.144531 C 24.578125 20.140625 24.5 20.140625 24.417969 20.140625 C 24.339844 20.136719 24.261719 20.136719 24.179688 20.136719 C 23.96875 20.132812 23.757812 20.128906 23.546875 20.125 C 23.332031 20.121094 23.113281 20.121094 22.898438 20.117188 C 22.476562 20.109375 22.054688 20.101562 21.632812 20.097656 C 21.632812 20.054688 21.632812 20.011719 21.632812 19.96875 C 21.550781 19.945312 21.550781 19.945312 21.46875 19.921875 C 21.011719 19.753906 20.753906 19.589844 20.527344 19.15625 C 20.507812 19.121094 20.488281 19.082031 20.464844 19.042969 C 20.054688 18.292969 19.96875 17.496094 20.144531 16.660156 C 20.386719 15.953125 20.867188 15.359375 21.515625 14.988281 C 22.136719 14.726562 22.714844 14.691406 23.378906 14.691406 Z M 23.378906 14.691406 "/>
<path style=" stroke:none;fill-rule:nonzero;fill:rgb(23.529412%,23.921569%,24.313726%);fill-opacity:1;" d="M 8.585938 13.039062 C 8.671875 13.039062 8.671875 13.039062 8.753906 13.039062 C 8.8125 13.035156 8.871094 13.035156 8.929688 13.035156 C 9.125 13.035156 9.316406 13.035156 9.511719 13.035156 C 9.644531 13.035156 9.78125 13.035156 9.914062 13.035156 C 10.195312 13.03125 10.476562 13.03125 10.757812 13.03125 C 11.117188 13.03125 11.480469 13.03125 11.839844 13.027344 C 12.117188 13.027344 12.394531 13.027344 12.671875 13.027344 C 12.804688 13.027344 12.9375 13.027344 13.070312 13.023438 C 13.257812 13.023438 13.441406 13.023438 13.628906 13.023438 C 13.683594 13.023438 13.738281 13.023438 13.796875 13.023438 C 14.039062 13.023438 14.167969 13.027344 14.371094 13.171875 C 14.503906 13.375 14.492188 13.527344 14.488281 13.769531 C 14.488281 13.847656 14.488281 13.925781 14.484375 14.007812 C 14.464844 14.207031 14.464844 14.207031 14.335938 14.335938 C 14.164062 14.351562 14.164062 14.351562 13.945312 14.347656 C 13.867188 14.347656 13.789062 14.347656 13.710938 14.347656 C 13.628906 14.347656 13.546875 14.34375 13.464844 14.34375 C 13.382812 14.34375 13.300781 14.34375 13.214844 14.34375 C 13.011719 14.339844 12.8125 14.339844 12.609375 14.335938 C 12.628906 14.367188 12.652344 14.402344 12.675781 14.433594 C 12.847656 14.699219 12.96875 14.914062 13.011719 15.230469 C 13.019531 15.292969 13.03125 15.351562 13.039062 15.414062 C 13.042969 15.460938 13.050781 15.503906 13.054688 15.550781 C 13.09375 15.550781 13.128906 15.550781 13.164062 15.550781 C 13.328125 15.546875 13.492188 15.546875 13.65625 15.542969 C 13.714844 15.542969 13.769531 15.542969 13.828125 15.539062 C 13.910156 15.539062 13.910156 15.539062 13.992188 15.539062 C 14.070312 15.539062 14.070312 15.539062 14.144531 15.539062 C 14.273438 15.550781 14.273438 15.550781 14.398438 15.679688 C 14.410156 15.851562 14.414062 16.019531 14.410156 16.191406 C 14.410156 16.261719 14.410156 16.261719 14.410156 16.335938 C 14.410156 16.6875 14.410156 16.6875 14.335938 16.832031 C 13.703125 16.863281 13.703125 16.863281 13.054688 16.894531 C 13.042969 16.988281 13.03125 17.082031 13.015625 17.175781 C 12.882812 17.828125 12.503906 18.308594 11.96875 18.6875 C 11.484375 18.96875 11.003906 19.199219 10.441406 19.238281 C 10.347656 19.246094 10.347656 19.246094 10.253906 19.253906 C 10.207031 19.257812 10.160156 19.261719 10.113281 19.265625 C 10.425781 19.65625 10.738281 20.046875 11.058594 20.433594 C 11.191406 20.59375 11.320312 20.757812 11.449219 20.921875 C 11.648438 21.171875 11.855469 21.417969 12.0625 21.664062 C 12.152344 21.769531 12.242188 21.875 12.332031 21.980469 C 12.410156 22.074219 12.492188 22.167969 12.574219 22.265625 C 12.621094 22.320312 12.667969 22.375 12.714844 22.433594 C 12.757812 22.480469 12.796875 22.527344 12.839844 22.578125 C 12.945312 22.746094 12.949219 22.84375 12.929688 23.039062 C 12.726562 23.242188 12.152344 23.164062 11.886719 23.167969 C 11.539062 23.160156 11.269531 23.152344 11 22.917969 C 10.832031 22.734375 10.695312 22.535156 10.570312 22.324219 C 10.492188 22.203125 10.410156 22.101562 10.316406 21.996094 C 10.175781 21.824219 10.175781 21.824219 10.175781 21.695312 C 10.132812 21.695312 10.089844 21.695312 10.046875 21.695312 C 9.960938 21.601562 9.878906 21.5 9.800781 21.398438 C 9.625 21.179688 9.449219 20.960938 9.261719 20.75 C 9.226562 20.710938 9.191406 20.667969 9.15625 20.628906 C 9.085938 20.546875 9.019531 20.46875 8.949219 20.390625 C 8.703125 20.109375 8.703125 20.109375 8.703125 19.96875 C 8.660156 19.96875 8.621094 19.96875 8.574219 19.96875 C 8.304688 19.742188 8.042969 19.480469 7.972656 19.125 C 7.945312 18.789062 7.910156 18.355469 8.0625 18.046875 C 8.121094 18.046875 8.179688 18.046875 8.238281 18.046875 C 8.457031 18.042969 8.675781 18.039062 8.894531 18.035156 C 8.988281 18.03125 9.082031 18.03125 9.175781 18.03125 C 9.917969 18.023438 10.683594 17.996094 11.265625 17.472656 C 11.40625 17.28125 11.507812 17.121094 11.585938 16.894531 C 11.542969 16.894531 11.5 16.894531 11.457031 16.894531 C 11.019531 16.890625 10.578125 16.882812 10.140625 16.875 C 9.976562 16.875 9.816406 16.871094 9.652344 16.867188 C 9.417969 16.867188 9.179688 16.863281 8.945312 16.859375 C 8.871094 16.859375 8.800781 16.855469 8.722656 16.855469 C 8.65625 16.855469 8.585938 16.855469 8.519531 16.851562 C 8.429688 16.851562 8.429688 16.851562 8.335938 16.851562 C 8.191406 16.832031 8.191406 16.832031 8.0625 16.703125 C 8.054688 16.519531 8.050781 16.339844 8.050781 16.15625 C 8.050781 16.105469 8.050781 16.054688 8.050781 16.003906 C 8.054688 15.625 8.054688 15.625 8.128906 15.550781 C 8.234375 15.546875 8.34375 15.542969 8.453125 15.542969 C 8.523438 15.542969 8.589844 15.542969 8.664062 15.542969 C 8.773438 15.546875 8.773438 15.546875 8.890625 15.546875 C 8.96875 15.546875 9.042969 15.546875 9.121094 15.546875 C 9.367188 15.546875 9.613281 15.546875 9.859375 15.546875 C 10.027344 15.546875 10.191406 15.546875 10.359375 15.550781 C 10.765625 15.550781 11.175781 15.550781 11.585938 15.550781 C 11.554688 15.46875 11.527344 15.390625 11.496094 15.308594 C 11.472656 15.238281 11.472656 15.238281 11.449219 15.167969 C 11.316406 14.867188 11.042969 14.664062 10.753906 14.527344 C 10.195312 14.367188 9.621094 14.371094 9.046875 14.359375 C 8.953125 14.359375 8.855469 14.355469 8.761719 14.351562 C 8.527344 14.347656 8.296875 14.339844 8.0625 14.335938 C 8.0625 14.148438 8.058594 13.957031 8.054688 13.769531 C 8.054688 13.714844 8.054688 13.660156 8.054688 13.605469 C 8.050781 13.554688 8.050781 13.5 8.050781 13.449219 C 8.050781 13.402344 8.050781 13.351562 8.050781 13.304688 C 8.085938 12.996094 8.335938 13.039062 8.585938 13.039062 Z M 8.585938 13.039062 "/>
<path style=" stroke:none;fill-rule:nonzero;fill:rgb(65.882355%,67.843139%,69.411767%);fill-opacity:1;" d="M 24.09375 4.121094 C 24.144531 4.121094 24.195312 4.121094 24.25 4.121094 C 24.355469 4.121094 24.464844 4.121094 24.574219 4.121094 C 24.738281 4.125 24.90625 4.125 25.070312 4.121094 C 25.175781 4.121094 25.28125 4.121094 25.386719 4.125 C 25.460938 4.125 25.460938 4.125 25.539062 4.121094 C 25.738281 4.128906 25.886719 4.140625 26.0625 4.25 C 26.242188 4.511719 26.210938 4.765625 26.203125 5.074219 C 26.207031 5.140625 26.207031 5.207031 26.207031 5.277344 C 26.203125 5.496094 26.203125 5.71875 26.199219 5.9375 C 26.199219 6.09375 26.199219 6.246094 26.199219 6.398438 C 26.199219 6.800781 26.195312 7.203125 26.195312 7.609375 C 26.191406 8.019531 26.191406 8.429688 26.1875 8.84375 C 26.1875 9.648438 26.179688 10.457031 26.175781 11.265625 C 26.046875 11.136719 26.046875 11.136719 25.9375 10.925781 C 25.691406 10.492188 25.296875 10.257812 24.832031 10.113281 C 24.554688 10.074219 24.277344 10.066406 23.996094 10.0625 C 23.886719 10.0625 23.886719 10.0625 23.773438 10.058594 C 23.59375 10.054688 23.414062 10.050781 23.230469 10.046875 C 23.222656 9.328125 23.21875 8.605469 23.214844 7.886719 C 23.214844 7.550781 23.210938 7.21875 23.207031 6.882812 C 23.203125 6.558594 23.203125 6.238281 23.203125 5.914062 C 23.199219 5.792969 23.199219 5.667969 23.199219 5.546875 C 23.195312 5.371094 23.195312 5.199219 23.195312 5.027344 C 23.195312 4.976562 23.195312 4.925781 23.191406 4.875 C 23.195312 4.617188 23.222656 4.496094 23.378906 4.289062 C 23.613281 4.117188 23.8125 4.113281 24.09375 4.121094 Z M 24.09375 4.121094 "/>
<path style=" stroke:none;fill-rule:nonzero;fill:rgb(65.882355%,67.843139%,69.411767%);fill-opacity:1;" d="M 20.121094 6.582031 C 20.164062 6.582031 20.210938 6.582031 20.257812 6.582031 C 20.355469 6.582031 20.453125 6.582031 20.550781 6.582031 C 20.699219 6.585938 20.847656 6.582031 20.996094 6.582031 C 21.089844 6.582031 21.183594 6.582031 21.28125 6.582031 C 21.324219 6.582031 21.367188 6.582031 21.414062 6.582031 C 21.625 6.585938 21.816406 6.589844 22.015625 6.65625 C 22.015625 6.699219 22.015625 6.742188 22.015625 6.785156 C 22.058594 6.785156 22.101562 6.785156 22.144531 6.785156 C 22.222656 6.941406 22.214844 7.039062 22.214844 7.214844 C 22.214844 7.277344 22.214844 7.339844 22.214844 7.40625 C 22.214844 7.472656 22.214844 7.539062 22.214844 7.609375 C 22.214844 7.679688 22.214844 7.75 22.214844 7.820312 C 22.214844 8.042969 22.210938 8.265625 22.210938 8.488281 C 22.210938 8.636719 22.210938 8.789062 22.210938 8.941406 C 22.210938 9.308594 22.210938 9.679688 22.207031 10.046875 C 21.238281 10.046875 20.265625 10.046875 19.265625 10.046875 C 19.257812 9.605469 19.253906 9.164062 19.253906 8.722656 C 19.253906 8.570312 19.25 8.421875 19.25 8.269531 C 19.246094 8.054688 19.246094 7.839844 19.246094 7.621094 C 19.246094 7.554688 19.242188 7.488281 19.242188 7.417969 C 19.242188 7.355469 19.242188 7.292969 19.242188 7.230469 C 19.242188 7.171875 19.242188 7.117188 19.242188 7.0625 C 19.269531 6.878906 19.328125 6.789062 19.457031 6.65625 C 19.679688 6.582031 19.886719 6.582031 20.121094 6.582031 Z M 20.121094 6.582031 "/>
<path style=" stroke:none;fill-rule:nonzero;fill:rgb(23.137255%,23.137255%,22.745098%);fill-opacity:1;" d="M 23.132812 16.648438 C 23.386719 16.835938 23.527344 17 23.578125 17.316406 C 23.597656 17.683594 23.5625 17.9375 23.324219 18.214844 C 23.101562 18.429688 22.96875 18.492188 22.660156 18.515625 C 22.328125 18.5 22.09375 18.433594 21.835938 18.214844 C 21.617188 17.953125 21.609375 17.695312 21.613281 17.363281 C 21.652344 17.058594 21.796875 16.851562 22.019531 16.644531 C 22.386719 16.511719 22.765625 16.527344 23.132812 16.648438 Z M 23.132812 16.648438 "/>
<path style=" stroke:none;fill-rule:nonzero;fill:rgb(24.705882%,32.549021%,36.470589%);fill-opacity:1;" d="M 20.671875 21.824219 C 20.964844 21.921875 20.964844 21.921875 21.054688 22.015625 C 21.082031 22.242188 21.082031 22.359375 20.953125 22.550781 C 20.882812 22.621094 20.882812 22.621094 20.8125 22.695312 C 20.761719 22.75 20.707031 22.804688 20.652344 22.859375 C 20.597656 22.917969 20.539062 22.980469 20.480469 23.039062 C 20.417969 23.109375 20.355469 23.179688 20.296875 23.25 C 20.265625 23.285156 20.234375 23.320312 20.203125 23.355469 C 20.144531 23.425781 20.085938 23.492188 20.023438 23.5625 C 19.890625 23.710938 19.796875 23.800781 19.601562 23.867188 C 19.457031 23.871094 19.457031 23.871094 19.328125 23.808594 C 19.328125 23.765625 19.328125 23.722656 19.328125 23.679688 C 19.292969 23.664062 19.257812 23.652344 19.222656 23.636719 C 18.921875 23.46875 18.71875 23.339844 18.621094 23 C 18.625 22.785156 18.625 22.785156 18.691406 22.65625 C 18.882812 22.558594 19 22.59375 19.199219 22.65625 C 19.285156 22.738281 19.371094 22.824219 19.457031 22.910156 C 19.539062 22.910156 19.625 22.910156 19.710938 22.910156 C 19.726562 22.878906 19.738281 22.84375 19.753906 22.808594 C 19.871094 22.601562 20.03125 22.433594 20.191406 22.261719 C 20.222656 22.226562 20.253906 22.191406 20.289062 22.152344 C 20.527344 21.898438 20.527344 21.898438 20.671875 21.824219 Z M 20.671875 21.824219 "/>
<path style=" stroke:none;fill-rule:nonzero;fill:rgb(25.098041%,32.941177%,36.470589%);fill-opacity:1;" d="M 22.5 25.003906 C 22.554688 25.003906 22.609375 25 22.667969 25 C 22.78125 25 22.898438 25 23.015625 25 C 23.191406 25 23.367188 24.996094 23.542969 24.996094 C 23.65625 24.996094 23.769531 24.996094 23.882812 24.996094 C 23.933594 24.992188 23.988281 24.992188 24.042969 24.992188 C 24.289062 24.992188 24.410156 24.996094 24.613281 25.144531 C 24.703125 25.28125 24.703125 25.28125 24.695312 25.445312 C 24.640625 25.601562 24.640625 25.601562 24.511719 25.792969 C 24.316406 25.8125 24.136719 25.816406 23.945312 25.816406 C 23.859375 25.816406 23.859375 25.816406 23.773438 25.816406 C 23.652344 25.816406 23.535156 25.816406 23.414062 25.8125 C 23.234375 25.8125 23.050781 25.8125 22.867188 25.8125 C 22.75 25.8125 22.636719 25.8125 22.519531 25.8125 C 22.4375 25.8125 22.4375 25.8125 22.355469 25.8125 C 21.964844 25.808594 21.964844 25.808594 21.824219 25.664062 C 21.808594 25.542969 21.808594 25.542969 21.808594 25.40625 C 21.808594 25.363281 21.808594 25.316406 21.808594 25.273438 C 21.855469 24.917969 22.226562 25.003906 22.5 25.003906 Z M 22.5 25.003906 "/>
<path style=" stroke:none;fill-rule:nonzero;fill:rgb(24.313726%,32.549021%,36.470589%);fill-opacity:1;" d="M 22.5 22.316406 C 22.554688 22.3125 22.609375 22.3125 22.667969 22.3125 C 22.78125 22.3125 22.898438 22.3125 23.015625 22.3125 C 23.191406 22.3125 23.367188 22.308594 23.542969 22.308594 C 23.65625 22.308594 23.769531 22.304688 23.882812 22.304688 C 23.933594 22.304688 23.988281 22.304688 24.042969 22.304688 C 24.289062 22.304688 24.410156 22.308594 24.613281 22.457031 C 24.703125 22.59375 24.703125 22.59375 24.699219 22.757812 C 24.636719 22.921875 24.585938 22.992188 24.449219 23.105469 C 24.261719 23.125 24.089844 23.132812 23.902344 23.128906 C 23.851562 23.128906 23.796875 23.128906 23.742188 23.128906 C 23.628906 23.128906 23.515625 23.128906 23.40625 23.128906 C 23.234375 23.128906 23.058594 23.128906 22.886719 23.128906 C 22.777344 23.128906 22.667969 23.128906 22.558594 23.128906 C 22.507812 23.128906 22.457031 23.128906 22.402344 23.128906 C 22.046875 23.125 22.046875 23.125 21.90625 23.019531 C 21.773438 22.84375 21.804688 22.679688 21.824219 22.464844 C 22.019531 22.269531 22.242188 22.316406 22.5 22.316406 Z M 22.5 22.316406 "/>
<path style=" stroke:none;fill-rule:nonzero;fill:rgb(24.705882%,32.549021%,36.470589%);fill-opacity:1;" d="M 20.757812 24.539062 C 20.929688 24.574219 20.929688 24.574219 21.054688 24.703125 C 21.085938 24.882812 21.085938 24.882812 21.054688 25.089844 C 20.917969 25.261719 20.917969 25.261719 20.730469 25.433594 C 20.667969 25.492188 20.601562 25.554688 20.539062 25.617188 C 20.507812 25.644531 20.472656 25.675781 20.441406 25.707031 C 20.28125 25.863281 20.136719 26.03125 19.988281 26.203125 C 19.796875 26.429688 19.796875 26.429688 19.597656 26.457031 C 19.347656 26.425781 19.246094 26.351562 19.070312 26.175781 C 19.070312 26.132812 19.070312 26.089844 19.070312 26.046875 C 19.035156 26.03125 18.996094 26.015625 18.957031 25.996094 C 18.714844 25.863281 18.714844 25.863281 18.625 25.726562 C 18.652344 25.316406 18.652344 25.316406 18.753906 25.214844 C 18.929688 25.191406 18.929688 25.191406 19.136719 25.214844 C 19.308594 25.375 19.308594 25.375 19.457031 25.535156 C 19.648438 25.558594 19.648438 25.558594 19.75 25.441406 C 19.800781 25.375 19.800781 25.375 19.855469 25.308594 C 19.894531 25.261719 19.933594 25.214844 19.976562 25.167969 C 20.035156 25.097656 20.035156 25.097656 20.097656 25.023438 C 20.472656 24.589844 20.472656 24.589844 20.757812 24.539062 Z M 20.757812 24.539062 "/>
<path style=" stroke:none;fill-rule:nonzero;fill:rgb(90.588236%,77.254903%,64.313728%);fill-opacity:1;" d="M 17.472656 8.894531 C 17.660156 9.074219 17.816406 9.261719 17.96875 9.472656 C 18.007812 9.527344 18.046875 9.582031 18.085938 9.636719 C 18.175781 9.792969 18.175781 9.792969 18.175781 10.046875 C 14.207031 10.046875 10.234375 10.046875 6.144531 10.046875 C 6.144531 10.027344 6.144531 10.003906 6.144531 9.984375 C 8.570312 9.925781 10.992188 9.910156 13.417969 9.914062 C 13.894531 9.917969 14.375 9.917969 14.855469 9.917969 C 15.832031 9.917969 16.8125 9.917969 17.792969 9.921875 C 17.808594 9.660156 17.808594 9.660156 17.722656 9.421875 C 17.691406 9.394531 17.664062 9.367188 17.632812 9.335938 C 17.472656 9.152344 17.472656 9.152344 17.472656 8.894531 Z M 17.472656 8.894531 "/>
<path style=" stroke:none;fill-rule:nonzero;fill:rgb(91.764706%,93.333334%,90.980393%);fill-opacity:1;" d="M 25.535156 20.222656 C 25.9375 20.222656 26.339844 20.222656 26.753906 20.222656 C 26.753906 20.246094 26.753906 20.265625 26.753906 20.289062 C 26.605469 20.289062 26.457031 20.289062 26.304688 20.289062 C 26.304688 20.363281 26.304688 20.441406 26.304688 20.519531 C 26.304688 20.808594 26.308594 21.097656 26.308594 21.386719 C 26.308594 21.511719 26.308594 21.636719 26.308594 21.761719 C 26.3125 22.46875 26.304688 23.167969 26.238281 23.871094 C 26.199219 23.871094 26.15625 23.871094 26.113281 23.871094 C 26.109375 23.816406 26.109375 23.816406 26.109375 23.761719 C 26.105469 23.382812 26.097656 23.003906 26.089844 22.625 C 26.089844 22.484375 26.085938 22.339844 26.085938 22.199219 C 26.082031 21.996094 26.078125 21.792969 26.074219 21.589844 C 26.074219 21.527344 26.074219 21.464844 26.070312 21.398438 C 26.070312 21.339844 26.070312 21.28125 26.070312 21.21875 C 26.066406 21.167969 26.066406 21.117188 26.066406 21.0625 C 26.054688 20.910156 26.054688 20.910156 25.921875 20.734375 C 25.921875 20.671875 25.921875 20.609375 25.921875 20.542969 C 25.878906 20.527344 25.839844 20.507812 25.800781 20.492188 C 25.664062 20.414062 25.664062 20.414062 25.535156 20.222656 Z M 25.535156 20.222656 "/>
<path style=" stroke:none;fill-rule:nonzero;fill:rgb(70.588237%,78.039217%,84.705883%);fill-opacity:1;" d="M 25.792969 20.542969 C 25.835938 20.542969 25.875 20.542969 25.921875 20.542969 C 26.117188 20.871094 26.140625 21.125 26.144531 21.496094 C 26.148438 21.578125 26.148438 21.578125 26.148438 21.664062 C 26.152344 21.847656 26.152344 22.035156 26.15625 22.21875 C 26.15625 22.351562 26.160156 22.480469 26.160156 22.609375 C 26.167969 22.957031 26.171875 23.304688 26.171875 23.652344 C 26.175781 23.875 26.179688 24.097656 26.183594 24.320312 C 26.1875 24.691406 26.191406 25.0625 26.195312 25.4375 C 26.195312 25.578125 26.195312 25.722656 26.199219 25.867188 C 26.203125 26.066406 26.203125 26.269531 26.203125 26.46875 C 26.203125 26.527344 26.207031 26.585938 26.207031 26.648438 C 26.207031 27.054688 26.113281 27.355469 25.921875 27.710938 C 25.878906 27.710938 25.835938 27.710938 25.792969 27.710938 C 25.769531 27.773438 25.75 27.839844 25.726562 27.902344 C 25.664062 27.710938 25.664062 27.710938 25.710938 27.546875 C 25.792969 27.390625 25.792969 27.390625 25.984375 27.265625 C 26.003906 27.066406 26.011719 26.878906 26.011719 26.679688 C 26.011719 26.617188 26.011719 26.558594 26.011719 26.496094 C 26.015625 26.296875 26.015625 26.09375 26.015625 25.894531 C 26.019531 25.753906 26.019531 25.617188 26.019531 25.476562 C 26.023438 25.109375 26.023438 24.742188 26.027344 24.378906 C 26.027344 24.003906 26.03125 23.628906 26.035156 23.257812 C 26.039062 22.523438 26.042969 21.789062 26.046875 21.054688 C 26.003906 21.054688 25.964844 21.054688 25.921875 21.054688 C 25.878906 20.886719 25.835938 20.71875 25.792969 20.542969 Z M 25.792969 20.542969 "/>
<path style=" stroke:none;fill-rule:nonzero;fill:rgb(71.372551%,78.823531%,83.137256%);fill-opacity:1;" d="M 18.515625 20.023438 C 18.574219 20.023438 18.628906 20.023438 18.6875 20.023438 C 18.75 20.023438 18.8125 20.023438 18.875 20.023438 C 18.941406 20.023438 19.003906 20.023438 19.074219 20.023438 C 19.289062 20.023438 19.507812 20.023438 19.722656 20.023438 C 19.835938 20.023438 19.835938 20.023438 19.949219 20.023438 C 20.511719 20.027344 21.070312 20.027344 21.632812 20.03125 C 21.757812 20.03125 21.757812 20.03125 21.882812 20.035156 C 22.382812 20.039062 22.878906 20.042969 23.375 20.050781 C 23.53125 20.050781 23.691406 20.050781 23.847656 20.054688 C 24.070312 20.054688 24.292969 20.058594 24.515625 20.0625 C 24.613281 20.0625 24.613281 20.0625 24.710938 20.066406 C 25.058594 20.070312 25.300781 20.097656 25.601562 20.289062 C 25.488281 20.328125 25.488281 20.328125 25.34375 20.351562 C 25.304688 20.332031 25.265625 20.3125 25.226562 20.289062 C 25.066406 20.214844 24.960938 20.207031 24.78125 20.207031 C 24.722656 20.207031 24.660156 20.207031 24.597656 20.207031 C 24.496094 20.207031 24.496094 20.207031 24.394531 20.210938 C 24.324219 20.210938 24.253906 20.210938 24.179688 20.210938 C 23.949219 20.210938 23.714844 20.210938 23.480469 20.210938 C 23.320312 20.210938 23.15625 20.210938 22.996094 20.210938 C 22.613281 20.210938 22.230469 20.214844 21.847656 20.214844 C 21.414062 20.214844 20.976562 20.21875 20.542969 20.21875 C 19.648438 20.21875 18.75 20.222656 17.855469 20.222656 C 18.085938 20.070312 18.246094 20.023438 18.515625 20.023438 Z M 18.515625 20.023438 "/>
<path style=" stroke:none;fill-rule:nonzero;fill:rgb(92.156863%,81.568629%,71.372551%);fill-opacity:1;" d="M 9.535156 6.910156 C 9.578125 6.933594 9.621094 6.953125 9.664062 6.976562 C 9.367188 7.289062 9.367188 7.289062 9.152344 7.359375 C 9.125 7.410156 9.097656 7.457031 9.070312 7.507812 C 8.917969 7.742188 8.765625 7.8125 8.511719 7.9375 C 8.46875 7.9375 8.425781 7.9375 8.382812 7.9375 C 8.382812 7.976562 8.382812 8.019531 8.382812 8.0625 C 8.339844 8.0625 8.300781 8.0625 8.257812 8.0625 C 8.234375 8.128906 8.214844 8.191406 8.191406 8.257812 C 7.941406 8.5 7.785156 8.613281 7.425781 8.640625 C 7.675781 8.378906 7.945312 8.148438 8.226562 7.921875 C 8.273438 7.882812 8.316406 7.847656 8.363281 7.808594 C 8.746094 7.5 9.136719 7.203125 9.535156 6.910156 Z M 9.535156 6.910156 "/>
<path style=" stroke:none;fill-rule:nonzero;fill:rgb(71.764708%,78.039217%,84.705883%);fill-opacity:1;" d="M 17.152344 25.855469 C 17.171875 25.855469 17.195312 25.855469 17.214844 25.855469 C 17.238281 26.339844 17.257812 26.828125 17.28125 27.328125 C 17.320312 27.328125 17.363281 27.328125 17.40625 27.328125 C 17.429688 27.496094 17.449219 27.664062 17.472656 27.839844 C 17.101562 27.484375 17.015625 26.933594 17.003906 26.4375 C 17.011719 26.222656 17.050781 26.050781 17.152344 25.855469 Z M 17.152344 25.855469 "/>
<path style=" stroke:none;fill-rule:nonzero;fill:rgb(65.490198%,74.509805%,83.137256%);fill-opacity:1;" d="M 25.792969 20.542969 C 25.835938 20.542969 25.875 20.542969 25.921875 20.542969 C 26.175781 20.921875 26.136719 21.316406 26.128906 21.761719 C 26.128906 21.84375 26.128906 21.925781 26.128906 22.007812 C 26.128906 22.21875 26.128906 22.433594 26.125 22.644531 C 26.125 22.863281 26.121094 23.082031 26.121094 23.296875 C 26.121094 23.722656 26.117188 24.148438 26.113281 24.574219 C 26.089844 24.574219 26.070312 24.574219 26.046875 24.574219 C 26.046875 23.414062 26.046875 22.253906 26.046875 21.054688 C 26.003906 21.054688 25.964844 21.054688 25.921875 21.054688 C 25.878906 20.886719 25.835938 20.71875 25.792969 20.542969 Z M 25.792969 20.542969 "/>
<path style=" stroke:none;fill-rule:nonzero;fill:rgb(80.784315%,75.686276%,71.764708%);fill-opacity:1;" d="M 21.632812 20.03125 C 22.878906 20.03125 24.125 20.03125 25.40625 20.03125 C 25.441406 20.128906 25.441406 20.128906 25.472656 20.222656 C 25.417969 20.207031 25.417969 20.207031 25.367188 20.191406 C 25.195312 20.15625 25.035156 20.148438 24.859375 20.148438 C 24.785156 20.144531 24.714844 20.144531 24.640625 20.144531 C 24.523438 20.140625 24.523438 20.140625 24.40625 20.140625 C 24.328125 20.136719 24.25 20.136719 24.167969 20.136719 C 23.957031 20.132812 23.746094 20.128906 23.535156 20.125 C 23.324219 20.121094 23.109375 20.121094 22.894531 20.117188 C 22.472656 20.109375 22.050781 20.101562 21.632812 20.097656 C 21.632812 20.074219 21.632812 20.054688 21.632812 20.03125 Z M 21.632812 20.03125 "/>
<path style=" stroke:none;fill-rule:nonzero;fill:rgb(98.039216%,94.509804%,87.058824%);fill-opacity:1;" d="M 25.535156 20.222656 C 25.9375 20.222656 26.339844 20.222656 26.753906 20.222656 C 26.753906 20.246094 26.753906 20.265625 26.753906 20.289062 C 26.605469 20.289062 26.457031 20.289062 26.304688 20.289062 C 26.304688 20.4375 26.304688 20.582031 26.304688 20.734375 C 26.261719 20.734375 26.21875 20.734375 26.175781 20.734375 C 26.15625 20.777344 26.132812 20.820312 26.113281 20.863281 C 26.105469 20.8125 26.097656 20.765625 26.09375 20.710938 C 26.0625 20.523438 26.0625 20.523438 25.855469 20.414062 C 25.855469 20.375 25.855469 20.332031 25.855469 20.289062 C 25.773438 20.308594 25.6875 20.332031 25.601562 20.351562 C 25.578125 20.308594 25.558594 20.265625 25.535156 20.222656 Z M 25.535156 20.222656 "/>
<path style=" stroke:none;fill-rule:nonzero;fill:rgb(92.156863%,79.215688%,66.666669%);fill-opacity:1;" d="M 21.183594 15.230469 C 21.226562 15.273438 21.269531 15.316406 21.3125 15.359375 C 21.226562 15.382812 21.144531 15.402344 21.054688 15.425781 C 21.046875 15.476562 21.046875 15.476562 21.035156 15.53125 C 20.945312 15.839844 20.796875 16.003906 20.542969 16.191406 C 20.433594 16.355469 20.433594 16.355469 20.351562 16.511719 C 20.289062 16.320312 20.289062 16.320312 20.351562 16.191406 C 20.933594 15.355469 20.933594 15.355469 21.183594 15.230469 Z M 21.183594 15.230469 "/>
<path style=" stroke:none;fill-rule:nonzero;fill:rgb(24.313726%,19.607843%,14.509805%);fill-opacity:1;" d="M 22.566406 16.558594 C 22.628906 16.558594 22.691406 16.558594 22.753906 16.558594 C 22.910156 16.574219 22.910156 16.574219 23.039062 16.703125 C 23.003906 16.703125 22.96875 16.699219 22.929688 16.699219 C 22.605469 16.691406 22.316406 16.695312 22.015625 16.832031 C 21.917969 17.023438 21.917969 17.023438 21.886719 17.214844 C 21.847656 17.214844 21.804688 17.214844 21.761719 17.214844 C 21.738281 17.257812 21.71875 17.300781 21.695312 17.34375 C 21.671875 17.125 21.6875 17.039062 21.808594 16.851562 C 22.046875 16.605469 22.226562 16.558594 22.566406 16.558594 Z M 22.566406 16.558594 "/>
<path style=" stroke:none;fill-rule:nonzero;fill:rgb(89.019608%,76.47059%,63.921571%);fill-opacity:1;" d="M 22.144531 16.511719 C 22.066406 16.75 21.933594 16.847656 21.761719 17.023438 C 21.738281 17.085938 21.71875 17.152344 21.695312 17.214844 C 21.632812 17.195312 21.570312 17.171875 21.503906 17.152344 C 21.535156 17.09375 21.566406 17.03125 21.601562 16.972656 C 21.710938 16.777344 21.710938 16.777344 21.695312 16.574219 C 21.855469 16.53125 21.976562 16.511719 22.144531 16.511719 Z M 22.144531 16.511719 "/>
<path style=" stroke:none;fill-rule:nonzero;fill:rgb(91.764706%,80.784315%,70.588237%);fill-opacity:1;" d="M 27.007812 14.847656 C 27.132812 14.910156 27.132812 14.910156 27.265625 15.039062 C 27.296875 15.230469 27.3125 15.394531 27.320312 15.585938 C 27.324219 15.632812 27.324219 15.683594 27.328125 15.734375 C 27.339844 15.988281 27.34375 16.105469 27.199219 16.320312 C 27.195312 16.222656 27.195312 16.222656 27.191406 16.125 C 27.1875 16.035156 27.179688 15.949219 27.175781 15.863281 C 27.175781 15.820312 27.171875 15.777344 27.171875 15.734375 C 27.152344 15.460938 27.101562 15.230469 27.007812 14.976562 C 27.007812 14.933594 27.007812 14.890625 27.007812 14.847656 Z M 27.007812 14.847656 "/>
<path style=" stroke:none;fill-rule:nonzero;fill:rgb(91.764706%,80.392158%,70.588237%);fill-opacity:1;" d="M 11.34375 5.585938 C 11.382812 5.601562 11.417969 5.617188 11.457031 5.632812 C 11.375 5.707031 11.296875 5.785156 11.214844 5.859375 C 11.148438 5.921875 11.148438 5.921875 11.082031 5.988281 C 10.945312 6.078125 10.945312 6.078125 10.800781 6.0625 C 10.761719 6.046875 10.726562 6.03125 10.6875 6.015625 C 10.765625 5.9375 10.847656 5.863281 10.929688 5.789062 C 10.972656 5.746094 11.015625 5.703125 11.0625 5.660156 C 11.199219 5.566406 11.199219 5.566406 11.34375 5.585938 Z M 11.34375 5.585938 "/>
<path style=" stroke:none;fill-rule:nonzero;fill:rgb(92.156863%,83.529413%,73.725492%);fill-opacity:1;" d="M 14.207031 4.414062 C 14.25 4.414062 14.292969 4.414062 14.335938 4.414062 C 14.378906 4.523438 14.421875 4.628906 14.464844 4.734375 C 14.507812 4.734375 14.546875 4.734375 14.59375 4.734375 C 14.699219 4.925781 14.804688 5.117188 14.910156 5.3125 C 14.871094 5.3125 14.828125 5.3125 14.785156 5.3125 C 14.464844 4.960938 14.464844 4.960938 14.464844 4.800781 C 14.421875 4.800781 14.378906 4.800781 14.335938 4.800781 C 14.292969 4.671875 14.25 4.546875 14.207031 4.414062 Z M 14.207031 4.414062 "/>
<path style=" stroke:none;fill-rule:nonzero;fill:rgb(94.117647%,92.156863%,87.843138%);fill-opacity:1;" d="M 8.703125 20.097656 C 9.09375 20.390625 9.09375 20.390625 9.214844 20.609375 C 9.1875 20.742188 9.1875 20.742188 9.152344 20.863281 C 8.722656 20.410156 8.722656 20.410156 8.703125 20.097656 Z M 8.703125 20.097656 "/>
<path style=" stroke:none;fill-rule:nonzero;fill:rgb(92.156863%,90.980393%,86.274511%);fill-opacity:1;" d="M 11.199219 20.480469 C 11.242188 20.5 11.285156 20.523438 11.328125 20.542969 C 11.328125 20.585938 11.328125 20.628906 11.328125 20.671875 C 11.390625 20.652344 11.453125 20.628906 11.519531 20.609375 C 11.636719 20.851562 11.652344 20.910156 11.585938 21.183594 C 11.4375 20.992188 11.289062 20.804688 11.136719 20.609375 C 11.15625 20.566406 11.179688 20.523438 11.199219 20.480469 Z M 11.199219 20.480469 "/>
<path style=" stroke:none;fill-rule:nonzero;fill:rgb(91.37255%,90.196079%,84.705883%);fill-opacity:1;" d="M 10.113281 19.265625 C 10.195312 19.265625 10.28125 19.265625 10.367188 19.265625 C 10.367188 19.304688 10.367188 19.347656 10.367188 19.390625 C 10.453125 19.371094 10.535156 19.351562 10.625 19.328125 C 10.625 19.390625 10.625 19.453125 10.625 19.519531 C 10.582031 19.519531 10.539062 19.519531 10.496094 19.519531 C 10.476562 19.605469 10.453125 19.6875 10.433594 19.777344 C 10.113281 19.40625 10.113281 19.40625 10.113281 19.265625 Z M 10.113281 19.265625 "/>
<path style=" stroke:none;fill-rule:nonzero;fill:rgb(90.980393%,78.039217%,64.313728%);fill-opacity:1;" d="M 20.222656 16.511719 C 20.363281 16.71875 20.375 16.785156 20.351562 17.023438 C 20.289062 17.117188 20.289062 17.117188 20.222656 17.214844 C 20.199219 17.320312 20.175781 17.429688 20.160156 17.535156 C 20.140625 17.535156 20.117188 17.535156 20.097656 17.535156 C 20.082031 17.167969 20.078125 16.855469 20.222656 16.511719 Z M 20.222656 16.511719 "/>
<path style=" stroke:none;fill-rule:nonzero;fill:rgb(77.254903%,84.313726%,89.411765%);fill-opacity:1;" d="M 17.089844 26.816406 C 17.199219 27.011719 17.214844 27.085938 17.214844 27.328125 C 17.28125 27.328125 17.34375 27.328125 17.40625 27.328125 C 17.429688 27.496094 17.449219 27.664062 17.472656 27.839844 C 17.191406 27.523438 17.0625 27.242188 17.089844 26.816406 Z M 17.089844 26.816406 "/>
<path style=" stroke:none;fill-rule:nonzero;fill:rgb(92.156863%,81.960785%,72.156864%);fill-opacity:1;" d="M 7.105469 8.832031 C 7.125 8.875 7.144531 8.917969 7.167969 8.960938 C 7.125 8.960938 7.082031 8.960938 7.039062 8.960938 C 7.03125 9 7.023438 9.039062 7.015625 9.078125 C 6.976562 9.214844 6.976562 9.214844 6.847656 9.34375 C 6.679688 9.351562 6.679688 9.351562 6.527344 9.34375 C 6.570312 9.324219 6.613281 9.300781 6.65625 9.28125 C 6.65625 9.238281 6.65625 9.195312 6.65625 9.152344 C 6.753906 9.070312 6.753906 9.070312 6.878906 8.984375 C 6.921875 8.957031 6.964844 8.925781 7.007812 8.898438 C 7.054688 8.863281 7.054688 8.863281 7.105469 8.832031 Z M 7.105469 8.832031 "/>
<path style=" stroke:none;fill-rule:nonzero;fill:rgb(92.54902%,81.568629%,72.941178%);fill-opacity:1;" d="M 12.222656 4.863281 C 12.222656 4.90625 12.222656 4.949219 12.222656 4.992188 C 12.183594 4.992188 12.140625 4.992188 12.097656 4.992188 C 12.078125 5.03125 12.0625 5.070312 12.042969 5.113281 C 11.96875 5.246094 11.96875 5.246094 11.777344 5.375 C 11.710938 5.355469 11.648438 5.332031 11.585938 5.3125 C 11.671875 5.214844 11.671875 5.214844 11.777344 5.121094 C 11.816406 5.121094 11.859375 5.121094 11.902344 5.121094 C 11.902344 5.078125 11.902344 5.035156 11.902344 4.992188 C 12.097656 4.863281 12.097656 4.863281 12.222656 4.863281 Z M 12.222656 4.863281 "/>
<path style=" stroke:none;fill-rule:nonzero;fill:rgb(90.588236%,80.000001%,70.588237%);fill-opacity:1;" d="M 6.527344 9.34375 C 6.527344 9.449219 6.527344 9.554688 6.527344 9.664062 C 6.359375 9.707031 6.191406 9.75 6.015625 9.792969 C 6.039062 9.75 6.058594 9.707031 6.078125 9.664062 C 6.121094 9.664062 6.164062 9.664062 6.207031 9.664062 C 6.207031 9.621094 6.207031 9.578125 6.207031 9.535156 C 6.4375 9.34375 6.4375 9.34375 6.527344 9.34375 Z M 6.527344 9.34375 "/>
<path style=" stroke:none;fill-rule:nonzero;fill:rgb(93.333334%,81.960785%,70.19608%);fill-opacity:1;" d="M 16.703125 7.871094 C 16.792969 7.953125 16.878906 8.039062 16.960938 8.128906 C 16.960938 8.171875 16.960938 8.210938 16.960938 8.257812 C 17.003906 8.257812 17.042969 8.257812 17.089844 8.257812 C 17.066406 8.296875 17.046875 8.339844 17.023438 8.382812 C 16.894531 8.382812 16.894531 8.382812 16.800781 8.296875 C 16.769531 8.261719 16.738281 8.226562 16.703125 8.191406 C 16.660156 8.148438 16.621094 8.109375 16.574219 8.0625 C 16.617188 8 16.660156 7.9375 16.703125 7.871094 Z M 16.703125 7.871094 "/>
<path style=" stroke:none;fill-rule:nonzero;fill:rgb(61.56863%,73.725492%,82.352942%);fill-opacity:1;" d="M 19.777344 25.214844 C 19.816406 25.257812 19.859375 25.300781 19.902344 25.34375 C 19.839844 25.363281 19.777344 25.386719 19.710938 25.40625 C 19.691406 25.472656 19.667969 25.535156 19.648438 25.601562 C 19.585938 25.601562 19.519531 25.601562 19.457031 25.601562 C 19.472656 25.480469 19.472656 25.480469 19.519531 25.34375 C 19.652344 25.265625 19.652344 25.265625 19.777344 25.214844 Z M 19.777344 25.214844 "/>
<path style=" stroke:none;fill-rule:nonzero;fill:rgb(91.37255%,90.196079%,85.09804%);fill-opacity:1;" d="M 11.585938 18.945312 C 11.542969 18.960938 11.503906 18.980469 11.460938 19 C 11.316406 19.0625 11.316406 19.0625 11.265625 19.199219 C 11.222656 19.199219 11.179688 19.199219 11.136719 19.199219 C 11.136719 19.242188 11.136719 19.285156 11.136719 19.328125 C 11.09375 19.328125 11.050781 19.328125 11.007812 19.328125 C 10.988281 19.242188 10.964844 19.160156 10.945312 19.070312 C 11.027344 19.039062 11.109375 19.003906 11.191406 18.972656 C 11.238281 18.953125 11.285156 18.933594 11.332031 18.914062 C 11.457031 18.878906 11.457031 18.878906 11.585938 18.945312 Z M 11.585938 18.945312 "/>
<path style=" stroke:none;fill-rule:nonzero;fill:rgb(91.37255%,81.176472%,70.980394%);fill-opacity:1;" d="M 17.472656 8.894531 C 17.660156 9.074219 17.792969 9.246094 17.921875 9.472656 C 17.6875 9.390625 17.613281 9.363281 17.472656 9.152344 C 17.472656 9.066406 17.472656 8.984375 17.472656 8.894531 Z M 17.472656 8.894531 "/>
<path style=" stroke:none;fill-rule:nonzero;fill:rgb(91.764706%,90.980393%,86.274511%);fill-opacity:1;" d="M 10.433594 22.078125 C 10.742188 22.382812 10.742188 22.382812 10.816406 22.527344 C 10.710938 22.527344 10.605469 22.527344 10.496094 22.527344 C 10.496094 22.464844 10.496094 22.402344 10.496094 22.335938 C 10.453125 22.335938 10.410156 22.335938 10.367188 22.335938 C 10.390625 22.25 10.410156 22.167969 10.433594 22.078125 Z M 10.433594 22.078125 "/>
<path style=" stroke:none;fill-rule:nonzero;fill:rgb(71.764708%,78.823531%,83.529413%);fill-opacity:1;" d="M 25.792969 20.542969 C 25.835938 20.542969 25.875 20.542969 25.921875 20.542969 C 26.117188 20.890625 26.117188 20.890625 26.09375 21.078125 C 26.078125 21.113281 26.0625 21.148438 26.046875 21.183594 C 26.046875 21.140625 26.046875 21.097656 26.046875 21.054688 C 26.003906 21.054688 25.964844 21.054688 25.921875 21.054688 C 25.878906 20.886719 25.835938 20.71875 25.792969 20.542969 Z M 25.792969 20.542969 "/>
<path style=" stroke:none;fill-rule:nonzero;fill:rgb(92.54902%,83.137256%,72.941178%);fill-opacity:1;" d="M 16 6.910156 C 16.3125 7.207031 16.3125 7.207031 16.382812 7.425781 C 16.300781 7.425781 16.214844 7.425781 16.128906 7.425781 C 16.085938 7.253906 16.042969 7.085938 16 6.910156 Z M 16 6.910156 "/>
<path style=" stroke:none;fill-rule:nonzero;fill:rgb(92.941177%,84.313726%,76.862746%);fill-opacity:1;" d="M 13.375 4.097656 C 13.480469 4.101562 13.582031 4.113281 13.683594 4.121094 C 13.742188 4.125 13.796875 4.128906 13.855469 4.132812 C 14.015625 4.160156 14.015625 4.160156 14.207031 4.289062 C 14.1875 4.332031 14.164062 4.371094 14.144531 4.414062 C 14.078125 4.386719 14.007812 4.355469 13.941406 4.324219 C 13.753906 4.242188 13.578125 4.191406 13.375 4.160156 C 13.375 4.140625 13.375 4.117188 13.375 4.097656 Z M 13.375 4.097656 "/>
<path style=" stroke:none;fill-rule:nonzero;fill:rgb(93.333334%,91.764706%,86.274511%);fill-opacity:1;" d="M 8.449219 19.777344 C 8.492188 19.796875 8.53125 19.816406 8.574219 19.839844 C 8.574219 19.882812 8.574219 19.925781 8.574219 19.96875 C 8.617188 19.96875 8.660156 19.96875 8.703125 19.96875 C 8.660156 20.050781 8.621094 20.136719 8.574219 20.222656 C 8.511719 20.203125 8.449219 20.183594 8.382812 20.160156 C 8.40625 20.035156 8.425781 19.90625 8.449219 19.777344 Z M 8.449219 19.777344 "/>
<path style=" stroke:none;fill-rule:nonzero;fill:rgb(91.37255%,81.960785%,70.980394%);fill-opacity:1;" d="M 27.136719 19.648438 C 27.179688 19.667969 27.21875 19.691406 27.265625 19.710938 C 27.242188 19.863281 27.242188 19.863281 27.199219 20.03125 C 27.136719 20.074219 27.074219 20.117188 27.007812 20.160156 C 27.0625 19.792969 27.0625 19.792969 27.136719 19.648438 Z M 27.136719 19.648438 "/>
<path style=" stroke:none;fill-rule:nonzero;fill:rgb(23.137255%,31.37255%,34.509805%);fill-opacity:1;" d="M 20.609375 24.574219 C 20.761719 24.5625 20.761719 24.5625 20.929688 24.574219 C 20.96875 24.640625 21.011719 24.703125 21.054688 24.769531 C 20.992188 24.769531 20.929688 24.769531 20.863281 24.769531 C 20.777344 24.789062 20.691406 24.808594 20.609375 24.832031 C 20.609375 24.746094 20.609375 24.664062 20.609375 24.574219 Z M 20.609375 24.574219 "/>
<path style=" stroke:none;fill-rule:nonzero;fill:rgb(91.764706%,79.607844%,67.843139%);fill-opacity:1;" d="M 22.167969 14.804688 C 22.203125 14.820312 22.238281 14.832031 22.273438 14.847656 C 21.925781 15.046875 21.925781 15.046875 21.734375 15.019531 C 21.683594 15 21.683594 15 21.632812 14.976562 C 21.980469 14.777344 21.980469 14.777344 22.167969 14.804688 Z M 22.167969 14.804688 "/>
<path style=" stroke:none;fill-rule:nonzero;fill:rgb(91.37255%,81.960785%,73.725492%);fill-opacity:1;" d="M 13.054688 4.160156 C 13.097656 4.179688 13.140625 4.203125 13.183594 4.222656 C 13.164062 4.265625 13.140625 4.308594 13.121094 4.351562 C 13.078125 4.351562 13.035156 4.351562 12.992188 4.351562 C 12.992188 4.394531 12.992188 4.4375 12.992188 4.480469 C 12.867188 4.5 12.738281 4.523438 12.609375 4.542969 C 12.753906 4.394531 12.882812 4.277344 13.054688 4.160156 Z M 13.054688 4.160156 "/>
<path style=" stroke:none;fill-rule:nonzero;fill:rgb(25.490198%,34.117648%,38.431373%);fill-opacity:1;" d="M 18.6875 22.65625 C 18.792969 22.65625 18.898438 22.65625 19.007812 22.65625 C 19.007812 22.71875 19.007812 22.78125 19.007812 22.847656 C 18.902344 22.867188 18.796875 22.890625 18.6875 22.910156 C 18.667969 22.871094 18.644531 22.828125 18.625 22.785156 C 18.644531 22.742188 18.667969 22.699219 18.6875 22.65625 Z M 18.6875 22.65625 "/>
<path style=" stroke:none;fill-rule:nonzero;fill:rgb(94.117647%,92.941177%,87.058824%);fill-opacity:1;" d="M 10.878906 20.160156 C 11.039062 20.191406 11.039062 20.191406 11.199219 20.222656 C 11.179688 20.328125 11.15625 20.433594 11.136719 20.542969 C 11.046875 20.460938 10.960938 20.375 10.878906 20.289062 C 10.878906 20.246094 10.878906 20.203125 10.878906 20.160156 Z M 10.878906 20.160156 "/>
<path style=" stroke:none;fill-rule:nonzero;fill:rgb(83.92157%,72.941178%,61.176473%);fill-opacity:1;" d="M 21.695312 16.769531 C 21.757812 16.789062 21.824219 16.808594 21.886719 16.832031 C 21.824219 16.957031 21.761719 17.085938 21.695312 17.214844 C 21.632812 17.195312 21.570312 17.171875 21.503906 17.152344 C 21.566406 17.023438 21.628906 16.898438 21.695312 16.769531 Z M 21.695312 16.769531 "/>
<path style=" stroke:none;fill-rule:nonzero;fill:rgb(92.156863%,83.529413%,74.117649%);fill-opacity:1;" d="M 10.433594 6.207031 C 10.453125 6.269531 10.472656 6.335938 10.496094 6.398438 C 10.335938 6.496094 10.335938 6.496094 10.175781 6.59375 C 10.15625 6.527344 10.132812 6.464844 10.113281 6.398438 C 10.21875 6.335938 10.324219 6.273438 10.433594 6.207031 Z M 10.433594 6.207031 "/>
</g>
</svg>
